<?xml version="1.0" encoding="UTF-8"?>
<svg id="Layer_1" data-name="Layer 1" xmlns="http://www.w3.org/2000/svg" viewBox="0 0 314.81 119.64">
  <defs>
    <style>
      .cls-1 {
        fill: #3f2c05;
      }
    </style>
  </defs>
  <path class="cls-1" d="M141.67,90.86c0-8.03,4.73-12.04,14.18-12.04,4.44,0,7.83,1,10.16,2.99,2.39,1.99,3.84,5.07,4.36,9.22l-7.69,1.11c-.11-3.02-.77-5.35-1.96-7-1.2-1.65-2.82-2.48-4.87-2.48s-3.65.54-4.78,1.62c-1.14,1.08-1.71,2.53-1.71,4.36s.51,3.05,1.54,3.84c1.03.8,3.08,1.57,6.15,2.31l3.25.85c3.7.85,6.35,2.22,7.94,4.1,1.59,1.82,2.39,4.58,2.39,8.29s-1.25,6.49-3.76,8.54c-2.51,2.05-6.15,3.07-10.93,3.07s-8.31-1-10.76-2.99c-2.45-1.99-3.9-5.07-4.35-9.22l7.69-1.2c.46,6.38,2.93,9.57,7.43,9.57,2.16,0,3.84-.54,5.04-1.62,1.25-1.08,1.88-2.53,1.88-4.35s-.54-3.1-1.62-3.84c-1.08-.8-3.24-1.57-6.49-2.31l-2.82-.6c-3.64-.8-6.26-2.14-7.86-4.01s-2.39-4.61-2.39-8.2ZM192.9,113.49l1.28,4.27c-2.33,1.25-4.95,1.88-7.86,1.88s-5.04-.77-6.58-2.31c-1.37-1.37-2.05-3.96-2.05-7.77v-16.57h-4.61v-4.87h4.61v-4.18l9.57-3.25v7.43h5.81v4.87h-5.81v18.45c0,1.99.74,2.99,2.22,2.99.91,0,2.05-.31,3.42-.94ZM224.83,88.12v30.75h-6.06l-2.48-3.07c-2.28,2.56-5.24,3.84-8.88,3.84-6.72,0-10.08-3.25-10.08-9.74v-21.78h9.57v20.5c0,1.99.28,3.5.85,4.53.57,1.02,1.62,1.54,3.16,1.54s3.02-.74,4.44-2.22v-24.34h9.48ZM260.23,77.45v41.42h-6.49l-2.05-2.9c-2.45,2.45-5.18,3.67-8.2,3.67-7.69,0-11.53-5.15-11.53-15.46,0-11.22,4.3-16.83,12.9-16.83,2.11,0,4.04.46,5.81,1.37v-10.08l9.57-1.19ZM246.23,114.94c1.76,0,3.25-.71,4.44-2.13v-19.39c-.91-.45-1.88-.68-2.9-.68-4.21,0-6.32,3.7-6.32,11.1s1.59,11.1,4.78,11.1ZM277.8,83.77c-1.08,1.02-2.42,1.54-4.01,1.54s-2.88-.54-4.01-1.62c-1.08-1.14-1.62-2.48-1.62-4.01s.54-2.93,1.62-4.01c1.08-1.14,2.42-1.71,4.01-1.71s2.93.57,4.01,1.71c1.08,1.08,1.62,2.45,1.62,4.1s-.54,2.93-1.62,4.01ZM278.57,118.87h-9.57v-30.75h9.57v30.75ZM314.81,103.5c0,10.76-4.87,16.14-14.61,16.14s-14.52-5.38-14.52-16.14,4.84-16.14,14.52-16.14,14.61,5.38,14.61,16.14ZM295.16,103.5c0,3.99.34,6.89,1.03,8.71.68,1.82,2.02,2.73,4.01,2.73s3.39-.88,4.01-2.65c.68-1.82,1.02-4.75,1.02-8.8s-.34-6.95-1.02-8.71c-.63-1.82-1.96-2.73-4.01-2.73s-3.33.91-4.01,2.73c-.68,1.82-1.03,4.73-1.03,8.71Z"/>
  <path class="cls-1" d="M2.54,61.87c-1.7,0-2.54-.85-2.54-2.54V2.54C0,.85.85,0,2.54,0h34.61c.8,0,1.41.22,1.82.67.45.42.67,1.04.67,1.87,0,1.66-.83,2.5-2.5,2.5H5.04v22.99h21.89c1.7,0,2.54.83,2.54,2.5s-.85,2.54-2.54,2.54H5.04v26.26c0,1.7-.83,2.54-2.5,2.54ZM36.12,61.63c-1.54-.67-2-1.79-1.39-3.36L58.54,1.97c.51-1.31,1.46-1.97,2.83-1.97h.29c1.31.03,2.24.69,2.78,1.97l23.81,56.3c.64,1.57.19,2.69-1.34,3.36-1.57.64-2.66.19-3.26-1.34l-6.38-15.12h-31.44l-6.38,15.12c-.64,1.54-1.74,1.98-3.31,1.34ZM47.88,40.13h27.26L61.51,7.97l-13.63,32.16ZM112.92,61.78c-5.73,0-9.98-1.26-12.77-3.79-2.75-2.56-4.22-6.58-4.42-12.05-.03-.77.18-1.38.62-1.82.48-.48,1.1-.72,1.87-.72s1.38.22,1.82.67.7,1.06.77,1.82c.13,4.03,1.09,6.85,2.88,8.45,1.79,1.6,4.86,2.4,9.22,2.4h13.82c4.54,0,7.7-.88,9.46-2.64,1.79-1.79,2.69-4.93,2.69-9.41s-.9-7.7-2.69-9.46c-1.76-1.79-4.91-2.69-9.46-2.69h-13.15c-5.63,0-9.76-1.31-12.38-3.94s-3.94-6.74-3.94-12.34,1.3-9.71,3.89-12.34c2.62-2.62,6.74-3.94,12.34-3.94h13.44c5.38,0,9.36,1.2,11.95,3.6,2.62,2.4,4.03,6.18,4.22,11.33.06.77-.14,1.39-.62,1.87-.45.45-1.07.67-1.87.67-.74,0-1.33-.22-1.78-.67-.45-.45-.7-1.06-.77-1.82-.13-3.68-1.02-6.26-2.69-7.73-1.66-1.47-4.48-2.21-8.45-2.21h-13.44c-4.19,0-7.1.83-8.74,2.5-1.63,1.63-2.45,4.54-2.45,8.74s.82,7.12,2.45,8.78c1.66,1.63,4.61,2.45,8.83,2.45h13.15c5.95,0,10.3,1.39,13.06,4.18,2.75,2.75,4.13,7.09,4.13,13.01s-1.38,10.26-4.13,13.01c-2.75,2.72-7.1,4.08-13.06,4.08h-13.82ZM163.14,61.87c-.77,0-1.39-.22-1.87-.67-.45-.48-.67-1.1-.67-1.87V2.54c0-.77.22-1.38.67-1.82.48-.48,1.1-.72,1.87-.72s1.38.24,1.82.72c.45.45.67,1.06.67,1.82v25.44h40.27V2.54c0-.77.22-1.38.67-1.82.45-.48,1.06-.72,1.82-.72s1.38.24,1.82.72c.48.45.72,1.06.72,1.82v56.78c0,.77-.24,1.39-.72,1.87-.45.45-1.06.67-1.82.67s-1.38-.22-1.82-.67c-.45-.48-.67-1.1-.67-1.87v-26.3h-40.27v26.3c0,.77-.22,1.39-.67,1.87-.45.45-1.06.67-1.82.67ZM231.48,61.87c-1.7,0-2.54-.85-2.54-2.54V2.54c0-1.7.85-2.54,2.54-2.54.9,0,1.76.5,2.59,1.49l40.66,52.22h-1.15V2.54c0-1.7.85-2.54,2.54-2.54s2.5.85,2.5,2.54v56.78c0,1.7-.83,2.54-2.5,2.54-.93,0-1.79-.5-2.59-1.49l-40.7-52.22h1.15v51.17c0,1.7-.83,2.54-2.5,2.54Z"/>
</svg>